<svg xmlns="http://www.w3.org/2000/svg" viewBox="0 0 877.35 294.14"><defs><style>.cls-1,.cls-7,.cls-8,.cls-9{fill:#3a4a3e;}.cls-2,.cls-5{fill:#f8f8f9;}.cls-3{fill:#fff;}.cls-4{fill:none;}.cls-5{opacity:0.46;}.cls-6{fill:#538a4b;}.cls-7{font-size:228.63px;font-family:Futura-Bold, Futura Bold;font-weight:700;}.cls-8{font-size:58.79px;font-family:Corbel;letter-spacing:1.15em;}.cls-9{stroke:#3a4a3e;stroke-miterlimit:10;stroke-width:1.78px;}</style></defs><g id="Layer_2" data-name="Layer 2"><g id="Objects"><circle class="cls-1" cx="146.05" cy="148.09" r="146.05"/><path class="cls-2" d="M738.87,129.44a6.4,6.4,0,0,0-.92.17v-6.93h.13V126A8.06,8.06,0,0,0,738.87,129.44Z" transform="translate(-679.28)"/><path class="cls-2" d="M920.8,176.06c0-1.38,0-2.73-.14-4.05a1.25,1.25,0,0,0,.18-.24.51.51,0,0,0,.11-.16V96.07h-55.2V180.6h55Z" transform="translate(-679.28)"/><path class="cls-2" d="M793.16,122.68v75.69H738V129.61a.65.65,0,0,1,.16-.17c-.09-1.14-.13-2.28-.13-3.44v-3.32Z" transform="translate(-679.28)"/><path class="cls-2" d="M738,207.86h63.16V145.35H741.86a50.76,50.76,0,0,0,17.83,22.08h0a49.89,49.89,0,0,0,28.8,9.12H744.24Z" transform="translate(-679.28)"/><circle class="cls-3" cx="209.83" cy="248.33" r="22.58"/><path class="cls-3" d="M791.48,44.23a22.58,22.58,0,1,1-22.57-22.58A22.57,22.57,0,0,1,791.48,44.23Z" transform="translate(-679.28)"/><path class="cls-2" d="M920.93,73.72v20c0,.47,0,.92,0,1.38a26.79,26.79,0,0,1-8,17.79H871.17a50.09,50.09,0,0,1,25.58,7.51,24.25,24.25,0,0,1-2.56.13h-9.68a26.68,26.68,0,0,1-18.65-7.64.07.07,0,0,1,0,0,26.93,26.93,0,0,1-8.05-19.15v-20c0-.67,0-1.32.09-2a26.85,26.85,0,0,1,26.65-24.84h9.68a26.85,26.85,0,0,1,26.65,24.84C920.9,72.4,920.93,73.05,920.93,73.72Z" transform="translate(-679.28)"/><path class="cls-2" d="M801.14,193.71v19.9a26.82,26.82,0,0,1-26.74,26.75h-9.67A26.83,26.83,0,0,1,738,213.61v-19.9a26.68,26.68,0,0,1,6.26-17.16h44.27a49.89,49.89,0,0,1-28.8-9.12,26.79,26.79,0,0,1,5-.46h9.67a26.79,26.79,0,0,1,26.74,26.74Z" transform="translate(-679.28)"/><polyline class="cls-4" points="241.6 112.67 241.6 94.94 241.6 80.14"/><path class="cls-2" d="M920.93,71.69v41H871.17a50.16,50.16,0,0,1,25.58,7.48h0a51.49,51.49,0,0,1,14.84,14H857.71V71.69Z" transform="translate(-679.28)"/><path class="cls-5" d="M920.7,159.77a49.84,49.84,0,0,0-9.09-25.57,51.36,51.36,0,0,0-14.84-14h0a50.19,50.19,0,0,0-25.59-7.48,8.43,8.43,0,0,0-.87,0H775.62a50.36,50.36,0,0,0-37.51,16.79,49.37,49.37,0,0,0,3.74,15.91,50.85,50.85,0,0,0,17.83,22.08h0a49.83,49.83,0,0,0,28.79,9.12H744.24L738,207.86v5.75a26.82,26.82,0,0,0,26.74,26.75h9.67a26.83,26.83,0,0,0,26.75-26.75V176.55h29.19a26.6,26.6,0,0,1,26.52,26.52v.34a7.39,7.39,0,0,0,0,1,7.47,7.47,0,0,0,0,1v0a14.36,14.36,0,0,0,14.27,13.31h35.59a14.39,14.39,0,0,0,14.13-12.12V163.18C920.84,162,920.79,160.88,920.7,159.77Z" transform="translate(-679.28)"/><line class="cls-4" x1="241.61" y1="193.71" x2="241.61" y2="159.57"/><path class="cls-6" d="M921,197.81V163.18c0-1.16,0-2.3-.13-3.41a50,50,0,0,0-9.12-25.57,51.43,51.43,0,0,0-14.86-14h0a49.41,49.41,0,0,0-10.61-4.89l-.65-.23a1.77,1.77,0,0,0-.32-.09l-.62-.2c-.54-.18-1.07-.34-1.61-.47a13.89,13.89,0,0,0-1.67-.38l-1.38-.31c-.65-.13-1.3-.25-2-.33-1.09-.18-2.23-.32-3.36-.41s-2.28-.15-3.44-.17H827.67c-.44,0-.87,0-1.29,0h-.07a28,28,0,0,1-3.68-.44c-.71-.14-1.45-.31-2.14-.51A26.7,26.7,0,0,1,801.22,88H737.81v34.65h0V126c0,1.16,0,2.3.14,3.44a49.11,49.11,0,0,0,3.74,15.91,50.66,50.66,0,0,0,17.87,22.08h0a49.84,49.84,0,0,0,28.8,9.12h41.93a25.45,25.45,0,0,1,2.63.13h0c.87.09,1.74.23,2.59.4a11.21,11.21,0,0,1,1.3.32s0,0,0,0a11.56,11.56,0,0,1,1.52.46,4.88,4.88,0,0,1,.93.32,12.2,12.2,0,0,1,1.19.46,8.94,8.94,0,0,1,1.18.54,15.46,15.46,0,0,1,2.25,1.23,5.53,5.53,0,0,1,1.09.69,5.87,5.87,0,0,1,1,.73,26.33,26.33,0,0,1,10.77,21.24v2.27h64.24v-7.53Z" transform="translate(-679.28)"/><path class="cls-6" d="M921.19,204.36a4.1,4.1,0,0,1,0,.49,3.85,3.85,0,0,1,0,.49,11.19,11.19,0,0,1-.14,1.18,14.39,14.39,0,0,1-14.17,12.13H871.16a14.37,14.37,0,0,1-14.3-13.31s0,0,0,0a7.63,7.63,0,0,1,0-1,7.47,7.47,0,0,1,0-1A14.4,14.4,0,0,1,871.16,190h35.68A14.37,14.37,0,0,1,921,202.19a10.18,10.18,0,0,1,.16,1.68A3.93,3.93,0,0,1,921.19,204.36Z" transform="translate(-679.28)"/><path class="cls-6" d="M801.3,88.49a14.12,14.12,0,0,1-14.11,14.09H752.07A14.12,14.12,0,0,1,738,89a3.62,3.62,0,0,1,0-.47,3.54,3.54,0,0,1,0-.46,14.13,14.13,0,0,1,14.09-13.64h35.12A14.13,14.13,0,0,1,801.28,88,3.54,3.54,0,0,1,801.3,88.49Z" transform="translate(-679.28)"/><text class="cls-7" transform="translate(342.34 191.37)">Hulu</text><text class="cls-8" transform="translate(354.92 248.07)">ORDER</text><line class="cls-9" x1="324.13" y1="40.69" x2="324.13" y2="251.34"/></g></g></svg>